<?xml version="1.0" encoding="UTF-8"?>
<svg width="500px" height="500px" viewBox="0 0 500 500" version="1.1" xmlns="http://www.w3.org/2000/svg" xmlns:xlink="http://www.w3.org/1999/xlink">
    <!-- Generator: Sketch 49.3 (51167) - http://www.bohemiancoding.com/sketch -->
    <title>Sprites</title>
    <desc>Created with Sketch.</desc>
    <defs>
        <rect id="path-1" x="300" y="50" width="16" height="16" rx="8"></rect>
    </defs>
    <g id="Sprites" stroke="none" stroke-width="1" fill="none" fill-rule="evenodd">
        <path d="M0.653061224,2.93877551 C0.462584826,2.93877551 0.306122449,2.87755102 0.183673469,2.75510204 C0.0612244898,2.63265306 0,2.47619068 0,2.28571429 L0,0.653061224 C0,0.462584826 0.0612244898,0.306122449 0.183673469,0.183673469 C0.306122449,0.0612244898 0.462584826,0 0.653061224,0 L17.6326531,0 C17.8231295,0 17.9795918,0.0612244898 18.1020408,0.183673469 C18.2244898,0.306122449 18.2857143,0.462584826 18.2857143,0.653061224 L18.2857143,2.28571429 C18.2857143,2.47619068 18.2244898,2.63265306 18.1020408,2.75510204 C17.9795918,2.87755102 17.8231295,2.93877551 17.6326531,2.93877551 L0.653061224,2.93877551 Z M0.653061224,9.46938776 C0.462584826,9.46938776 0.306122449,9.40816327 0.183673469,9.28571429 C0.0612244898,9.16326531 0,9.00680293 0,8.81632653 L0,7.18367347 C0,6.99319707 0.0612244898,6.83673469 0.183673469,6.71428571 C0.306122449,6.59183673 0.462584826,6.53061224 0.653061224,6.53061224 L17.6326531,6.53061224 C17.8231295,6.53061224 17.9795918,6.59183673 18.1020408,6.71428571 C18.2244898,6.83673469 18.2857143,6.99319707 18.2857143,7.18367347 L18.2857143,8.81632653 C18.2857143,9.00680293 18.2244898,9.16326531 18.1020408,9.28571429 C17.9795918,9.40816327 17.8231295,9.46938776 17.6326531,9.46938776 L0.653061224,9.46938776 Z M0.653061224,16 C0.462584826,16 0.306122449,15.9387755 0.183673469,15.8163265 C0.0612244898,15.6938776 0,15.5374152 0,15.3469388 L0,13.7142857 C0,13.5238093 0.0612244898,13.3673469 0.183673469,13.244898 C0.306122449,13.122449 0.462584826,13.0612245 0.653061224,13.0612245 L17.6326531,13.0612245 C17.8231295,13.0612245 17.9795918,13.122449 18.1020408,13.244898 C18.2244898,13.3673469 18.2857143,13.5238093 18.2857143,13.7142857 L18.2857143,15.3469388 C18.2857143,15.5374152 18.2244898,15.6938776 18.1020408,15.8163265 C17.9795918,15.9387755 17.8231295,16 17.6326531,16 L0.653061224,16 Z" id="" fill="#333333" opacity="0.900000036"></path>
        <g id="delivery" transform="translate(50.000000, 0.000000)" fill="#B01B0B" fill-rule="nonzero">
            <polygon id="Shape" points="11.4033826 5.30714094 11.4033826 12.636 16.0745235 12.636 16.0745235 11.3474094 12.6919732 11.3474094 12.6919732 5.30714094"></polygon>
            <path d="M23.984698,11.1838389 C23.984698,5.04273826 18.9816644,0.0479194631 12.8406443,0.0479194631 C7.33240268,0.0479194631 2.74783893,4.09908725 1.86096644,9.33398658 L0.0722416107,9.33398658 L3.15696644,14.6494228 L6.33205369,9.33398658 L4.48300671,9.33398658 C5.32912752,5.46821477 8.75919463,2.62510067 12.846604,2.62510067 C17.5664698,2.62510067 21.4075168,6.46453691 21.4075168,11.1844027 C21.4075168,15.262953 18.4906309,18.6832752 14.705396,19.5377718 L14.705396,22.1649664 C19.9402953,21.2780134 23.984698,16.6919195 23.984698,11.1838389 Z" id="Shape"></path>
            <path d="M1.96413423,20.9999195 L2.78359732,20.1287517 C3.31602685,19.5492886 3.68134228,19.1155973 3.87962416,18.8217181 C4.07790604,18.5277584 4.17704698,18.1911141 4.17704698,17.8084027 C4.17704698,17.2398926 3.99052349,16.7929933 3.61755705,16.4656107 C3.2445906,16.1385503 2.72536913,15.9750604 2.05981208,15.9750604 C1.43299329,15.9750604 0.929718121,16.1702819 0.549825503,16.5597584 C0.169852349,16.949396 -0.0132080537,17.4355168 0.000724832215,17.995651 L0.00910067114,18.0318926 L1.38177181,18.0318926 C1.38177181,17.709745 1.44209396,17.5154094 1.56273826,17.3365369 C1.68338255,17.1575034 1.84904698,17.0626309 2.05989262,17.0626309 C2.29554362,17.0626309 2.47232215,17.1291544 2.59014765,17.2679195 C2.70805369,17.4065235 2.76692617,17.5908725 2.76692617,17.8239463 C2.76692617,17.9875168 2.70869799,18.1795168 2.59224161,18.4013154 C2.47578523,18.6232752 2.30786577,18.8751946 2.06126174,19.1582013 L0.128214765,21.2044027 L0.128214765,22.1393557 L4.31613423,22.1393557 L4.31613423,21.0118389 L1.97661745,21.0118389 L1.96413423,20.9999195 Z" id="Shape"></path>
            <path d="M8.18190604,16.0990872 L6.81277852,16.0990872 L6.81277852,16.0754899 L4.36832215,19.9880537 L4.4362953,20.8507651 L6.81277852,20.8507651 L6.81277852,22.1393557 L8.18190604,22.1393557 L8.18190604,20.8507651 L8.82620134,20.8507651 L8.82620134,19.8037852 L8.18190604,19.8037852 L8.18190604,16.0990872 Z M6.81277852,19.8037852 L5.60939597,19.8037852 L6.64936913,18.0734497 L6.77267114,17.8915168 L6.81277852,17.8891812 L6.81277852,19.8037852 Z" id="Shape"></path>
            <path d="M13.4168054,22.1393557 L13.4168054,19.5321342 C13.4168054,19.3383624 13.4216376,19.1606174 13.4002148,18.9957584 C13.3459329,18.5801879 13.2332617,18.2545772 13.0427919,18.0222282 C12.7764564,17.697745 12.4146846,17.5355436 11.9487785,17.5355436 C11.713047,17.5355436 11.5148456,17.5916779 11.319302,17.7040268 C11.1237584,17.8163758 10.9201611,17.9738255 10.8396242,18.1762148 L10.8396242,16.0185503 L9.38995973,16.0185503 L9.38995973,22.1393557 L10.8396242,22.1393557 L10.8396242,18.8457987 C10.8396242,18.7737181 10.9740403,18.7175839 11.0739866,18.6773154 C11.1736913,18.6372081 11.2839463,18.6170738 11.4198121,18.6170738 C11.633396,18.6170738 11.7899597,18.6822282 11.8939329,18.8124564 C11.9979866,18.9428456 12.0476779,19.1799463 12.0476779,19.5239195 L12.0476779,22.1393557 L12.5373423,22.1393557 L13.4168054,22.1393557 Z" id="Shape"></path>
        </g>
        <g id="Group-17" transform="translate(100.000000, 0.000000)">
            <circle id="Oval-4" fill="#000000" opacity="0.100000001" cx="28" cy="28" r="28"></circle>
            <path d="M41.0967742,25.9677419 C42,26.4946242 42.4516129,27.2849468 42.4516129,28.3387097 C42.4516129,29.3924725 42,30.1827951 41.0967742,30.7096774 L21.2258065,42.1129032 C20.3225806,42.6397855 19.4193548,42.6397855 18.516129,42.1129032 C17.6129032,41.5860209 17.1612903,40.7956984 17.1612903,39.7419355 L17.1612903,16.2580645 C17.1612903,15.2043016 17.6129032,14.4139791 18.516129,13.8870968 C19.4193548,13.3602145 20.3225806,13.3602145 21.2258065,13.8870968 L41.0967742,25.9677419 Z M56,28 C56,33.0430113 54.7392467,37.7096774 52.2177419,42 C49.6962371,46.2903226 46.2903226,49.6962371 42,52.2177419 C37.7096774,54.7392467 33.0430113,56 28,56 C22.9569887,56 18.2903226,54.7392467 14,52.2177419 C9.70967742,49.6962371 6.30376287,46.2903226 3.78225806,42 C1.26075326,37.7096774 0,33.0430113 0,28 C0,22.9569887 1.26075326,18.2903226 3.78225806,14 C6.30376287,9.70967742 9.70967742,6.30376287 14,3.78225806 C18.2903226,1.26075326 22.9569887,0 28,0 C33.0430113,0 37.7096774,1.26075326 42,3.78225806 C46.2903226,6.30376287 49.6962371,9.70967742 52.2177419,14 C54.7392467,18.2903226 56,22.9569887 56,28 Z M5.41935484,28 C5.41935484,32.0645161 6.43548387,35.8279564 8.46774194,39.2903226 C10.5,42.7526887 13.2473113,45.5 16.7096774,47.5322581 C20.1720436,49.5645161 23.9354839,50.5806452 28,50.5806452 C32.0645161,50.5806452 35.8279564,49.5645161 39.2903226,47.5322581 C42.7526887,45.5 45.5,42.7526887 47.5322581,39.2903226 C49.5645161,35.8279564 50.5806452,32.0645161 50.5806452,28 C50.5806452,23.9354839 49.5645161,20.1720436 47.5322581,16.7096774 C45.5,13.2473113 42.7526887,10.5 39.2903226,8.46774194 C35.8279564,6.43548387 32.0645161,5.41935484 28,5.41935484 C23.9354839,5.41935484 20.1720436,6.43548387 16.7096774,8.46774194 C13.2473113,10.5 10.5,13.2473113 8.46774194,16.7096774 C6.43548387,20.1720436 5.41935484,23.9354839 5.41935484,28 Z" id="" fill="#FFFFFF"></path>
        </g>
        <path d="M7.875,100.848436 C7.875,101.551559 8.13020833,102.231245 8.640625,102.887493 C8.93229167,103.309367 9.50347241,103.895303 10.3541667,104.645301 C11.1319443,105.348425 11.703125,105.899205 12.0677083,106.297641 C12.6753474,106.977327 13.1371526,107.668732 13.453125,108.371855 C13.8177083,109.262478 14,110.223413 14,111.254661 C14,112.473408 13.6840276,113.598405 13.0520833,114.629653 C12.4201391,115.6609 11.5694443,116.481211 10.5,117.090584 C9.43055574,117.699958 8.26388907,118.004645 7,118.004645 C5.73611093,118.004645 4.56944426,117.699958 3.5,117.090584 C2.43055574,116.481211 1.57986093,115.6609 0.947916667,114.629653 C0.315972408,113.598405 0,112.473408 0,111.254661 C0,110.293726 0.206597408,109.367946 0.619791667,108.477324 C0.984375,107.727326 1.44618074,107.071077 2.00520833,106.508578 C2.17534741,106.321079 2.38194426,106.233188 2.625,106.244907 C2.86805574,106.256626 3.07465259,106.338657 3.24479167,106.491 C3.41493074,106.643343 3.5,106.848421 3.5,107.106233 L3.5,110.094507 C3.5,110.727318 3.72482657,111.266379 4.17447917,111.711691 C4.62413176,112.157002 5.17100676,112.379658 5.81510417,112.379658 C6.45920157,112.379658 7.01215259,112.162861 7.47395833,111.729269 C7.93576407,111.295676 8.16666667,110.762474 8.16666667,110.129663 C8.16666667,109.637477 7.99652759,109.168728 7.65625,108.723417 C7.46180574,108.442167 7.09722241,108.043731 6.5625,107.528107 C5.85763907,106.871858 5.38368074,106.344516 5.140625,105.94608 C4.72743074,105.289831 4.58159741,104.563271 4.703125,103.766397 C4.82465259,102.782025 5.34722241,101.657027 6.27083333,100.391405 C6.41666667,100.157031 6.62326407,100.028125 6.890625,100.004688 C7.15798593,99.9812499 7.38888907,100.045703 7.58333333,100.198046 C7.77777759,100.35039 7.875,100.567186 7.875,100.848436 Z" id="" fill="#000000" opacity="0.400000006"></path>
        <path d="M8.91601448,150.632811 C9.06552972,150.351562 9.2835726,150.164062 9.57014367,150.070312 C9.85671475,149.976563 10.1432853,149.976563 10.4298563,150.070312 C10.7164274,150.164062 10.9344703,150.351562 11.0839855,150.632811 L13.5136082,155.273425 L18.9709146,156.011705 C19.2948645,156.058579 19.5502862,156.199204 19.7371803,156.433579 C19.9240743,156.667953 20.0112914,156.925765 19.9988319,157.207014 C19.9863725,157.488264 19.8680061,157.734357 19.6437332,157.945294 L15.6815793,161.566379 L16.6160495,166.699179 C16.6658878,166.980428 16.6098196,167.2441 16.4478449,167.490193 C16.2858702,167.736286 16.0553674,167.894489 15.7563369,167.964801 C15.4573064,168.035113 15.1707353,167.999957 14.8966242,167.859333 L10,165.468713 L5.10337576,167.859333 C4.82926467,167.999957 4.54269359,168.035113 4.24366311,167.964801 C3.94463262,167.894489 3.71412976,167.736286 3.5521551,167.490193 C3.39018044,167.2441 3.33411223,166.980428 3.38395045,166.699179 L4.31842073,161.566379 L0.356266761,157.945294 C0.131993895,157.734357 0.0136274701,157.488264 0.00116805651,157.207014 C-0.011291357,156.925765 0.0759256785,156.667953 0.262819734,156.433579 C0.449713789,156.199204 0.705135474,156.058579 1.02908536,156.011705 L6.48639177,155.273425 L8.91601448,150.632811 Z" id="" fill="#FFFFFF" opacity="0.699999988"></path>
        <path d="M65.0868056,165.629464 C63.3298611,166.540179 61.5474535,166.995536 59.7395833,166.995536 C58.7974535,166.995536 57.8298611,166.861607 56.8368056,166.59375 C56.1238424,166.379464 55.4236111,166.111607 54.7361111,165.790179 L53.9722222,165.388393 C53.8449076,165.388393 53.7048611,165.495536 53.5520833,165.709821 C53.4502313,165.84375 53.2847222,166.084821 53.0555556,166.433036 C52.7754632,166.941964 52.5462965,167.290178 52.3680556,167.477679 C52.0879632,167.825893 51.8078702,168 51.5277778,168 C51.0694444,168 50.6875,167.8125 50.3819444,167.4375 C50.1273146,167.142857 50,166.821429 50,166.473214 C50,166.125 50.1655091,165.763393 50.4965278,165.388393 C50.6747687,165.174107 51.0057868,164.866071 51.4895833,164.464286 C51.820602,164.196428 52.0370368,163.995536 52.1388889,163.861607 C52.3425924,163.647322 52.4444444,163.473214 52.4444444,163.339286 L52.2916667,163.058036 C52.2152778,162.816964 52.1388889,162.549107 52.0625,162.254464 C51.9861111,161.852679 51.9479167,161.424107 51.9479167,160.96875 C51.9479167,159.040179 52.6099535,157.325893 53.9340278,155.825893 C55.1307868,154.459821 56.6712965,153.455357 58.5555556,152.8125 C59.0138889,152.651786 59.625,152.53125 60.3888889,152.450893 C60.8726854,152.424107 61.6238424,152.397322 62.6423611,152.370536 C64.1192132,152.316964 65.1759257,152.25 65.8125,152.169643 C66.9074076,152.008929 67.6712965,151.700893 68.1041667,151.245536 L68.4861111,150.883929 C68.7662035,150.5625 68.9953702,150.348214 69.1736111,150.241071 C69.4537035,150.080357 69.7910882,150 70.1857639,150 C70.5804396,150 70.9305556,150.334821 71.2361111,151.004464 C71.4907409,151.540178 71.6944444,152.236607 71.8472222,153.09375 C71.9490743,153.763393 72,154.339286 72,154.821429 C72,157.125 71.4525465,159.174107 70.3576389,160.96875 C69.1863424,162.870536 67.429398,164.424107 65.0868056,165.629464 Z M55.3854167,162.575893 C56.6076389,160.754464 58.0144674,159.455357 59.6059028,158.678571 C61.1973382,157.901786 63.0752313,157.59375 65.2395833,157.754464 C65.3923611,157.78125 65.5324076,157.734375 65.6597222,157.613839 C65.7870368,157.493304 65.8634257,157.345982 65.8888889,157.171875 C65.914352,156.997768 65.8697917,156.84375 65.7552083,156.709821 C65.640625,156.575893 65.4942132,156.495536 65.3159722,156.46875 C62.9733798,156.28125 60.9045139,156.629464 59.109375,157.513393 C57.3142361,158.397321 55.741898,159.84375 54.3923611,161.852679 C54.2905091,161.986607 54.2523146,162.140625 54.2777778,162.314732 C54.3032409,162.488839 54.3859952,162.629464 54.5260417,162.736607 C54.6660882,162.84375 54.8188659,162.883929 54.984375,162.857143 C55.1498841,162.830357 55.2835646,162.736607 55.3854167,162.575893 Z" id="" fill="#FFFFFF" opacity="0.699999988"></path>
        <path d="M63.416655,102.347835 L61.6079572,102.347835 C61.3369687,101.009861 60.1585042,100 58.75,100 C58.4278605,100 58.166655,100.262792 58.166655,100.586968 L58.166655,102.347835 L50.583345,102.347835 C50.2612055,102.347835 50,102.610628 50,102.934803 L50,117.413032 C50,117.737172 50.2611706,118 50.583345,118 C50.9968155,118 63.236753,118 63.416655,118 C63.7387945,118 64,117.737208 64,117.413032 L64,102.934768 C64,102.610628 63.7388294,102.347835 63.416655,102.347835 Z M51.166655,103.521735 L58.166655,103.521735 L58.166655,107.043471 L52.916655,107.043471 C52.5945155,107.043471 52.33331,107.306263 52.33331,107.630438 C52.33331,107.954578 52.5944806,108.217406 52.916655,108.217406 L58.166655,108.217406 L58.166655,112.171914 C57.5665742,112.257484 56.9991964,112.474608 56.4976092,112.809998 C56.1413341,112.054738 55.6067293,111.384169 54.943653,110.872155 C54.0205592,110.159363 52.9162357,109.782594 51.75,109.782594 C51.5546549,109.782594 51.3599038,109.794055 51.166655,109.815606 L51.166655,103.521735 Z M59.333345,116.826065 L51.166655,116.826065 L51.166655,110.998611 C51.35917,110.970943 51.5541308,110.956494 51.75,110.956494 C53.5689351,110.956494 55.1848733,112.184886 55.6795077,113.943715 C55.8023888,114.380636 56.3478248,114.514968 56.6589584,114.193148 C57.0745952,113.763118 57.5964472,113.478071 58.166655,113.362513 L58.166655,113.891297 C58.166655,114.215437 58.4278256,114.478265 58.75,114.478265 L59.333345,114.478265 C59.9766456,114.478265 60.5,115.004869 60.5,115.652165 C60.5,116.299425 59.9766456,116.826065 59.333345,116.826065 Z M60.5,113.619399 C60.1566175,113.419079 59.7579961,113.304329 59.333345,113.304329 L59.333345,101.274482 C60.0123884,101.516743 60.5,102.169558 60.5,102.934768 L60.5,113.619399 Z M62.833345,116.826065 L61.3527612,116.826065 C61.5519845,116.480409 61.666655,116.079664 61.666655,115.652165 L61.666655,103.521735 L62.83331,103.521735 L62.83331,116.826065 L62.833345,116.826065 Z" id="Shape" fill="#FFFFFF" fill-rule="nonzero" opacity="0.699999988"></path>
        <g id="icon" transform="translate(100.000000, 100.000000)" fill="#FFFFFF" fill-rule="nonzero" opacity="0.699999988">
            <path d="M16.5302952,7.16497088 L16.4195889,7.65968961 L16.2108614,7.65968961 C16.3930655,7.9641319 16.4968527,8.3285401 16.4968527,8.72754402 C16.4968527,9.97529614 15.5558492,10.9162996 14.3080971,10.9162996 C13.2033406,10.9162996 12.3707371,10.0721641 12.3707371,8.95010978 C12.3707371,8.37582091 12.5736986,7.86034476 12.9104302,7.46825999 L12.9911536,6.74866911 C13.0049918,6.61951178 13.0188301,6.48920125 13.0338216,6.3738822 C13.1099322,5.85494647 13.2863703,5.36830008 13.5712084,4.87934731 C12.3165371,4.30505843 10.8854277,4.00638209 9.36782899,4.00638209 C4.40565025,4.00638209 0.368330301,7.19149427 0.368330301,12.837515 C0.368330301,18.4835357 4.40565025,23.0789998 9.36782899,23.0789998 C14.3311609,23.0789998 18.3696341,18.4846889 18.3696341,12.837515 C18.3707873,10.5126829 17.6823325,8.60415263 16.5302952,7.16497088 Z M9.36898218,21.6894053 C5.07450075,21.6894053 1.59186543,17.7293491 1.59186543,12.8398214 L4.27649292,12.8398214 L7.79948991,10.2197725 L6.38913792,12.8628852 C6.38913792,12.8628852 13.3659405,14.3159052 17.1449458,12.8398214 C17.1449458,17.7293491 13.66577,21.6894053 9.36898218,21.6894053 Z" id="Shape"></path>
            <path d="M7.58384328,15.9257591 C7.58384328,15.2765129 7.0591416,14.7518112 6.41220173,14.7518112 C5.76295548,14.7518112 5.23710061,15.2765129 5.23710061,15.9257591 C5.23710061,16.5750054 5.76295548,17.1020135 6.41220173,17.1020135 C7.0591416,17.1008603 7.58384328,16.5738522 7.58384328,15.9257591 Z M6.64975898,16.6730266 C6.31764011,16.6730266 6.04894672,16.40318 6.04894672,16.0722143 C6.04894672,15.7389423 6.31648692,15.4690957 6.64975898,15.4690957 C6.98303103,15.4690957 7.2540308,15.7389423 7.2540308,16.0722143 C7.25518399,16.40318 6.98303103,16.6730266 6.64975898,16.6730266 Z" id="Shape"></path>
            <path d="M12.4445413,14.7518112 C11.7964482,14.7518112 11.2705933,15.2765129 11.2705933,15.9257591 C11.2705933,16.5750054 11.7964482,17.1020135 12.4445413,17.1020135 C13.0937875,17.1020135 13.6207956,16.5750054 13.6207956,15.9257591 C13.6207956,15.2765129 13.0937875,14.7518112 12.4445413,14.7518112 Z M12.2035244,16.6730266 C11.8714056,16.6730266 11.601559,16.40318 11.601559,16.0722143 C11.601559,15.7389423 11.8714056,15.4690957 12.2035244,15.4690957 C12.5367965,15.4690957 12.8066431,15.7389423 12.8066431,16.0722143 C12.8066431,16.40318 12.5367965,16.6730266 12.2035244,16.6730266 Z" id="Shape"></path>
            <path d="M15.4001685,1.97792 C16.0424956,1.99291147 16.2246997,2.28582186 16.2246997,2.65023006 C16.2246997,3.13918284 15.651564,3.60045904 15.1061049,4.20127129 C14.3369269,5.0258025 13.9598336,5.71079766 13.8479741,6.46498425 C13.8341358,6.57684373 13.8202975,6.70254149 13.8064592,6.82708607 L15.7622703,6.82708607 C15.7899469,6.7013883 15.8037852,6.6045203 15.832615,6.49150763 C15.9583127,5.86301881 16.2246997,5.42941918 16.7701588,4.88396007 C17.5658603,4.08825862 18.3073618,3.3744337 18.3073618,2.25814529 C18.3073618,1.11187393 17.328303,0.356534149 15.9871425,0.356534149 C14.9388923,0.356534149 14.1408845,0.636759442 13.6254083,0.958499592 L13.889489,2.36885158 C14.2665823,2.13244753 14.7832116,1.97792 15.4001685,1.97792 Z" id="Shape"></path>
            <path d="M13.1906555,8.93973107 C13.1906555,9.59589647 13.6380934,10.0860024 14.3080971,10.0860024 C15.1049518,10.0860024 15.6780874,9.51286675 15.6780874,8.71601211 C15.6780874,8.03101695 15.2179644,7.54091099 14.5329693,7.54091099 C13.7349614,7.54091099 13.1906555,8.19822958 13.1906555,8.93973107 Z" id="Shape"></path>
            <path d="M8.01744291,20.2552788 C7.46621785,20.1065172 7.07413308,19.6879091 6.8527205,19.0029139 L7.43277533,18.8160971 C7.58845605,19.2958243 7.83177924,19.57259 8.17427682,19.6648453 C9.10951432,19.9104748 10.6421045,18.7653567 11.1518147,18.3017741 L11.5611973,18.754978 C11.4770144,18.8322417 9.47046295,20.6404444 8.01744291,20.2552788 Z" id="Shape"></path>
        </g>
        <path d="M156.270833,117.648395 C155.638889,116.757773 154.824653,115.632775 153.828125,114.273403 C152.612847,112.585907 151.810764,111.449192 151.421875,110.863255 C150.862847,110.019507 150.486111,109.310524 150.291667,108.736307 C150.097222,108.16209 150,107.499982 150,106.749984 C150,105.531237 150.315972,104.406239 150.947917,103.374992 C151.579861,102.343745 152.430556,101.523434 153.5,100.91406 C154.569444,100.304687 155.736111,100 157,100 C158.263889,100 159.430556,100.304687 160.5,100.91406 C161.569444,101.523434 162.420139,102.343745 163.052083,103.374992 C163.684028,104.406239 164,105.531237 164,106.749984 C164,107.499982 163.902778,108.16209 163.708333,108.736307 C163.513889,109.310524 163.137153,110.019507 162.578125,110.863255 C162.189236,111.449192 161.387153,112.585907 160.171875,114.273403 L157.729167,117.648395 C157.559028,117.88277 157.315972,117.999957 157,117.999957 C156.684028,117.999957 156.440972,117.88277 156.270833,117.648395 Z M157,109.562477 C157.802083,109.562477 158.488715,109.287087 159.059896,108.736307 C159.631077,108.185527 159.916667,107.52342 159.916667,106.749984 C159.916667,105.976548 159.631077,105.314441 159.059896,104.763661 C158.488715,104.21288 157.802083,103.937491 157,103.937491 C156.197917,103.937491 155.511285,104.21288 154.940104,104.763661 C154.368923,105.314441 154.083333,105.976548 154.083333,106.749984 C154.083333,107.52342 154.368923,108.185527 154.940104,108.736307 C155.511285,109.287087 156.197917,109.562477 157,109.562477 Z" id="" fill="#000000" opacity="0.400000006"></path>
        <path d="M204.571429,105.203113 L204.571429,103.796866 C204.571429,103.679679 204.613095,103.580069 204.696429,103.498039 C204.779762,103.416008 204.880953,103.374992 205,103.374992 L206.428571,103.374992 C206.547619,103.374992 206.64881,103.416008 206.732143,103.498039 C206.815476,103.580069 206.857143,103.679679 206.857143,103.796866 L206.857143,105.203113 C206.857143,105.3203 206.815476,105.419909 206.732143,105.50194 C206.64881,105.583971 206.547619,105.624987 206.428571,105.624987 L205,105.624987 C204.880953,105.624987 204.779762,105.583971 204.696429,105.50194 C204.613095,105.419909 204.571429,105.3203 204.571429,105.203113 Z M211,105.624987 L209.571429,105.624987 C209.452381,105.624987 209.35119,105.583971 209.267857,105.50194 C209.184524,105.419909 209.142857,105.3203 209.142857,105.203113 L209.142857,103.796866 C209.142857,103.679679 209.184524,103.580069 209.267857,103.498039 C209.35119,103.416008 209.452381,103.374992 209.571429,103.374992 L211,103.374992 C211.119047,103.374992 211.220238,103.416008 211.303571,103.498039 C211.386905,103.580069 211.428571,103.679679 211.428571,103.796866 L211.428571,105.203113 C211.428571,105.3203 211.386905,105.419909 211.303571,105.50194 C211.220238,105.583971 211.119047,105.624987 211,105.624987 Z M206.428571,108.999979 L205,108.999979 C204.880953,108.999979 204.779762,108.958963 204.696429,108.876932 C204.613095,108.794901 204.571429,108.695292 204.571429,108.578105 L204.571429,107.171858 C204.571429,107.054671 204.613095,106.955061 204.696429,106.87303 C204.779762,106.791 204.880953,106.749984 205,106.749984 L206.428571,106.749984 C206.547619,106.749984 206.64881,106.791 206.732143,106.87303 C206.815476,106.955061 206.857143,107.054671 206.857143,107.171858 L206.857143,108.578105 C206.857143,108.695292 206.815476,108.794901 206.732143,108.876932 C206.64881,108.958963 206.547619,108.999979 206.428571,108.999979 Z M211,108.999979 L209.571429,108.999979 C209.452381,108.999979 209.35119,108.958963 209.267857,108.876932 C209.184524,108.794901 209.142857,108.695292 209.142857,108.578105 L209.142857,107.171858 C209.142857,107.054671 209.184524,106.955061 209.267857,106.87303 C209.35119,106.791 209.452381,106.749984 209.571429,106.749984 L211,106.749984 C211.119047,106.749984 211.220238,106.791 211.303571,106.87303 C211.386905,106.955061 211.428571,107.054671 211.428571,107.171858 L211.428571,108.578105 C211.428571,108.695292 211.386905,108.794901 211.303571,108.876932 C211.220238,108.958963 211.119047,108.999979 211,108.999979 Z M206.857143,110.54685 L206.857143,111.953097 C206.857143,112.070284 206.815476,112.169893 206.732143,112.251924 C206.64881,112.333955 206.547619,112.37497 206.428571,112.37497 L205,112.37497 C204.880953,112.37497 204.779762,112.333955 204.696429,112.251924 C204.613095,112.169893 204.571429,112.070284 204.571429,111.953097 L204.571429,110.54685 C204.571429,110.429663 204.613095,110.330053 204.696429,110.248022 C204.779762,110.165992 204.880953,110.124976 205,110.124976 L206.428571,110.124976 C206.547619,110.124976 206.64881,110.165992 206.732143,110.248022 C206.815476,110.330053 206.857143,110.429663 206.857143,110.54685 Z M211,112.37497 L209.571429,112.37497 C209.452381,112.37497 209.35119,112.333955 209.267857,112.251924 C209.184524,112.169893 209.142857,112.070284 209.142857,111.953097 L209.142857,110.54685 C209.142857,110.429663 209.184524,110.330053 209.267857,110.248022 C209.35119,110.165992 209.452381,110.124976 209.571429,110.124976 L211,110.124976 C211.119047,110.124976 211.220238,110.165992 211.303571,110.248022 C211.386905,110.330053 211.428571,110.429663 211.428571,110.54685 L211.428571,111.953097 C211.428571,112.070284 211.386905,112.169893 211.303571,112.251924 C211.220238,112.333955 211.119047,112.37497 211,112.37497 Z M216,116.734335 L216,117.999957 L200,117.999957 L200,116.734335 C200,116.617148 200.041667,116.517539 200.125,116.435508 C200.208333,116.353477 200.309524,116.312461 200.428571,116.312461 L201.142857,116.312461 L201.142857,100.843748 C201.119047,100.609373 201.196429,100.410155 201.375,100.246093 C201.553571,100.082031 201.761905,100 202,100 L214.035714,100 C214.25,100 214.446429,100.082031 214.625,100.246093 C214.803571,100.410155 214.880953,100.609373 214.857143,100.843748 L214.857143,116.312461 L215.571429,116.312461 C215.690476,116.312461 215.791667,116.353477 215.875,116.435508 C215.958333,116.517539 216,116.617148 216,116.734335 Z M202.857143,116.277305 L206.857143,116.277305 L206.857143,113.921842 C206.857143,113.804655 206.89881,113.705045 206.982143,113.623014 C207.065476,113.540984 207.166667,113.499968 207.285714,113.499968 L208.714286,113.499968 C208.833333,113.499968 208.934524,113.540984 209.017857,113.623014 C209.10119,113.705045 209.142857,113.804655 209.142857,113.921842 L209.142857,116.277305 L213.178571,116.277305 L213.178571,101.722652 L202.857143,101.687496 L202.857143,116.277305 Z" id="" fill="#FFFFFF" opacity="0.699999988"></path>
        <path d="M267.709677,106.677419 C267.903226,107.42742 268,108.201613 268,109 C268,109.798387 267.903226,110.57258 267.709677,111.322581 L262.919355,111.322581 C263.112903,109.774193 263.112903,108.225807 262.919355,106.677419 L267.709677,106.677419 Z M256.423387,112.483871 L261.576613,112.483871 C261.358871,113.548387 261.056452,114.528226 260.669355,115.423387 C260.209677,116.46371 259.665322,117.32258 259.03629,118 L258.96371,118 C258.334678,117.32258 257.790323,116.46371 257.330645,115.423387 C256.943548,114.528226 256.641129,113.548387 256.423387,112.483871 Z M262.737903,105.516129 C262.350806,103.387097 261.649194,101.596774 260.633065,100.145161 C262.133064,100.41129 263.475806,101.028226 264.66129,101.995968 C265.846774,102.96371 266.729839,104.137097 267.310484,105.516129 L262.737903,105.516129 Z M261.758065,106.677419 C261.951613,108.225807 261.951613,109.774193 261.758065,111.322581 L256.241935,111.322581 C256.048387,109.774193 256.048387,108.225807 256.241935,106.677419 L261.758065,106.677419 Z M255.262097,112.483871 C255.649194,114.612903 256.350806,116.403226 257.366935,117.854839 C255.866936,117.58871 254.524194,116.971774 253.33871,116.004032 C252.153226,115.03629 251.270161,113.862903 250.689516,112.483871 L255.262097,112.483871 Z M262.737903,112.483871 L267.310484,112.483871 C266.729839,113.862903 265.846774,115.03629 264.66129,116.004032 C263.475806,116.971774 262.133064,117.58871 260.633065,117.854839 C261.649194,116.403226 262.350806,114.612903 262.737903,112.483871 Z M261.576613,105.516129 L256.423387,105.516129 C256.641129,104.451613 256.943548,103.471774 257.330645,102.576613 C257.790323,101.53629 258.334678,100.67742 258.96371,100 L259.03629,100 C259.665322,100.67742 260.209677,101.53629 260.669355,102.576613 C261.056452,103.471774 261.358871,104.451613 261.576613,105.516129 Z M250.290323,106.677419 L255.080645,106.677419 C254.887097,108.225807 254.887097,109.774193 255.080645,111.322581 L250.290323,111.322581 C250.096774,110.57258 250,109.798387 250,109 C250,108.201613 250.096774,107.42742 250.290323,106.677419 Z M255.262097,105.516129 L250.689516,105.516129 C251.270161,104.137097 252.153226,102.96371 253.33871,101.995968 C254.524194,101.028226 255.866936,100.41129 257.366935,100.145161 C256.350806,101.596774 255.649194,103.387097 255.262097,105.516129 Z" id="" fill="#FFFFFF" opacity="0.699999988"></path>
        <path d="M314.669118,100 C316.335784,100 317.640931,100.484914 318.584559,101.454741 C319.528186,102.424569 320,103.762931 320,105.469828 C320,106.633621 319.607843,107.823276 318.823529,109.038793 C318.431372,109.659483 317.977941,110.228448 317.463235,110.74569 L310.588235,117.767241 C310.416666,117.922414 310.220588,118 310,118 C309.779412,118 309.583334,117.922414 309.411765,117.767241 L302.536765,110.74569 C302.120098,110.357759 301.691176,109.827586 301.25,109.155172 C300.416666,107.887931 300,106.659483 300,105.469828 C300,103.762931 300.471814,102.424569 301.415441,101.454741 C302.359069,100.484914 303.664216,100 305.330882,100 C306.188725,100 307.095588,100.310345 308.051471,100.931034 C308.713235,101.344828 309.362745,101.875 310,102.521552 C310.637255,101.875 311.286765,101.344828 311.948529,100.931034 C312.904412,100.310345 313.811275,100 314.669118,100 Z" id="" fill="#FFFFFF" opacity="0.699999988"></path>
        <path d="M353.212788,105.941392 C353.212788,106.363266 353.469602,106.738265 353.983228,107.066389 C354.301188,107.253889 354.906534,107.511701 355.799266,107.839825 C356.691998,108.167949 357.346262,108.43748 357.762054,108.648417 C358.44689,108.999979 358.972746,109.398415 359.339623,109.843727 C359.779874,110.406225 360,111.062474 360,111.812472 C360,112.843719 359.645353,113.740201 358.936059,114.501919 C358.226765,115.263636 357.285115,115.738244 356.111111,115.925743 L356.111111,117.578083 C356.111111,117.69527 356.068309,117.79488 355.982704,117.876911 C355.8971,117.958941 355.793151,117.999957 355.67086,117.999957 L354.203354,117.999957 C354.081062,117.999957 353.977114,117.958941 353.891509,117.876911 C353.805905,117.79488 353.763103,117.69527 353.763103,117.578083 L353.763103,115.890587 C353.053809,115.7734 352.387317,115.568322 351.763627,115.275354 C351.139937,114.982386 350.595737,114.624965 350.131027,114.203091 C350.057652,114.132779 350.01485,114.044888 350.00262,113.93942 C349.990391,113.833951 350.020964,113.734342 350.09434,113.640592 L351.194969,112.19919 C351.268344,112.10544 351.372292,112.052705 351.506813,112.040987 C351.641335,112.029268 351.745283,112.058565 351.818658,112.128877 C352.332285,112.503877 352.845912,112.808563 353.359539,113.042938 C353.946541,113.277312 354.509084,113.394499 355.04717,113.394499 C355.65863,113.394499 356.147799,113.242156 356.514675,112.937469 C356.808176,112.65622 356.954927,112.328096 356.954927,111.953097 C356.954927,111.578097 356.722572,111.238255 356.257862,110.933568 C355.939902,110.746068 355.346786,110.488256 354.478511,110.160132 C353.610237,109.832008 352.955975,109.562477 352.515723,109.35154 C351.806429,108.976541 351.256115,108.542948 350.86478,108.050762 C350.424528,107.464826 350.204402,106.773422 350.204402,105.976548 C350.204402,105.062488 350.528476,104.259756 351.176625,103.568351 C351.824773,102.876946 352.686932,102.414057 353.763103,102.179682 L353.763103,100.421874 C353.763103,100.304687 353.805905,100.205077 353.891509,100.123047 C353.977114,100.041016 354.081062,100 354.203354,100 L355.67086,100 C355.793151,100 355.8971,100.041016 355.982704,100.123047 C356.068309,100.205077 356.111111,100.304687 356.111111,100.421874 L356.111111,102.074214 C356.722572,102.144526 357.327918,102.296869 357.927149,102.531244 C358.52638,102.765619 359.033893,103.058586 359.449686,103.410148 C359.523061,103.48046 359.571977,103.562491 359.596436,103.656241 C359.620895,103.749991 359.608665,103.843741 359.559748,103.937491 L358.679245,105.449206 C358.630329,105.566393 358.53861,105.636705 358.404088,105.660143 C358.269567,105.68358 358.153389,105.660143 358.055556,105.58983 C357.077219,104.933582 356.13557,104.605458 355.230608,104.605458 C354.619147,104.605458 354.129979,104.728504 353.763103,104.974598 C353.396226,105.220691 353.212788,105.542956 353.212788,105.941392 Z" id="" fill="#FFFFFF" opacity="0.699999988"></path>
        <path d="M417.999957,105.343737 L417.999957,108.156231 C417.999957,108.390605 417.917926,108.589823 417.753864,108.753885 C417.589802,108.917948 417.390584,108.999979 417.156209,108.999979 L416.87496,108.999979 L416.87496,114.906214 C416.87496,115.140589 416.792929,115.339807 416.628867,115.503869 C416.464804,115.667932 416.265586,115.749962 416.031212,115.749962 L415.749962,115.749962 L415.749962,117.156209 C415.749962,117.390584 415.667932,117.589802 415.503869,117.753864 C415.339807,117.917926 415.140589,117.999957 414.906214,117.999957 L413.218718,117.999957 C412.984344,117.999957 412.785126,117.917926 412.621064,117.753864 C412.457001,117.589802 412.37497,117.390584 412.37497,117.156209 L412.37497,115.749962 L405.624987,115.749962 L405.624987,117.156209 C405.624987,117.390584 405.542956,117.589802 405.378893,117.753864 C405.214831,117.917926 405.015613,117.999957 404.781239,117.999957 L403.093743,117.999957 C402.859368,117.999957 402.66015,117.917926 402.496088,117.753864 C402.332026,117.589802 402.249995,117.390584 402.249995,117.156209 L402.249995,115.749962 L401.968745,115.749962 C401.734371,115.749962 401.535153,115.667932 401.37109,115.503869 C401.207028,115.339807 401.124997,115.140589 401.124997,114.906214 L401.124997,108.999979 L400.843748,108.999979 C400.609373,108.999979 400.410155,108.917948 400.246093,108.753885 C400.082031,108.589823 400,108.390605 400,108.156231 L400,105.343737 C400,105.109363 400.082031,104.910145 400.246093,104.746082 C400.410155,104.58202 400.609373,104.499989 400.843748,104.499989 L401.124997,104.499989 L401.124997,102.812493 C401.124997,102.296869 401.476559,101.828121 402.179682,101.406247 C402.882806,100.984373 403.837882,100.64453 405.04491,100.386718 C406.251938,100.128906 407.570294,100 408.999979,100 C410.429663,100 411.748019,100.128906 412.955047,100.386718 C414.162075,100.64453 415.117151,100.984373 415.820275,101.406247 C416.523398,101.828121 416.87496,102.296869 416.87496,102.812493 L416.87496,104.499989 L417.156209,104.499989 C417.390584,104.499989 417.589802,104.58202 417.753864,104.746082 C417.917926,104.910145 417.999957,105.109363 417.999957,105.343737 Z M403.937491,111.249973 C403.539054,111.249973 403.205071,111.384738 402.93554,111.654269 C402.666009,111.9238 402.531244,112.257783 402.531244,112.65622 C402.531244,113.054656 402.666009,113.38864 402.93554,113.658171 C403.205071,113.927701 403.539054,114.062466 403.937491,114.062466 C404.335927,114.062466 404.669911,113.927701 404.939441,113.658171 C405.208972,113.38864 405.343737,113.054656 405.343737,112.65622 C405.343737,112.257783 405.208972,111.9238 404.939441,111.654269 C404.669911,111.384738 404.335927,111.249973 403.937491,111.249973 Z M414.062466,111.249973 C413.66403,111.249973 413.330047,111.384738 413.060516,111.654269 C412.790985,111.9238 412.65622,112.257783 412.65622,112.65622 C412.65622,113.054656 412.790985,113.38864 413.060516,113.658171 C413.330047,113.927701 413.66403,114.062466 414.062466,114.062466 C414.460903,114.062466 414.794886,113.927701 415.064417,113.658171 C415.333948,113.38864 415.468713,113.054656 415.468713,112.65622 C415.468713,112.257783 415.333948,111.9238 415.064417,111.654269 C414.794886,111.384738 414.460903,111.249973 414.062466,111.249973 Z M415.187464,109.281228 L415.187464,104.21874 C415.187464,103.984365 415.105433,103.785147 414.941371,103.621085 C414.777308,103.457023 414.57809,103.374992 414.343716,103.374992 L403.656241,103.374992 C403.421867,103.374992 403.222649,103.457023 403.058586,103.621085 C402.894524,103.785147 402.812493,103.984365 402.812493,104.21874 L402.812493,109.281228 C402.812493,109.515602 402.894524,109.71482 403.058586,109.878883 C403.222649,110.042945 403.421867,110.124976 403.656241,110.124976 L414.343716,110.124976 C414.57809,110.124976 414.777308,110.042945 414.941371,109.878883 C415.105433,109.71482 415.187464,109.515602 415.187464,109.281228 Z" id="" fill="#FFFFFF" opacity="0.699999988"></path>
        <path d="M469.900857,108.622767 L466.95398,102.051743 C466.953891,102.051565 466.953802,102.051387 466.953713,102.051209 L466.949886,102.042665 C466.940007,102.020683 466.928259,102.000036 466.915266,101.980367 C466.911795,101.975027 466.907612,101.970222 466.903963,101.965149 C466.892304,101.948951 466.879756,101.933733 466.866228,101.919404 C466.860888,101.913797 466.85546,101.908279 466.849853,101.90294 C466.834901,101.888789 466.819149,101.875706 466.802417,101.863781 C466.798056,101.860577 466.794051,101.857017 466.789513,101.853991 C466.768509,101.840108 466.74626,101.828182 466.723121,101.817947 C466.716535,101.81501 466.709682,101.812874 466.702918,101.810293 C466.684763,101.803352 466.66634,101.797567 466.647295,101.793028 C466.639463,101.791159 466.63172,101.78929 466.6238,101.787866 C466.597723,101.78306 466.571202,101.779856 466.544058,101.779856 L461.344126,101.779856 C461.255128,101.502986 461.082207,101.264206 460.855976,101.091284 L460.855976,100.444986 C460.855976,100.199265 460.656711,100 460.410989,100 L459.580289,100 C459.334567,100 459.135303,100.199265 459.135303,100.444986 L459.135303,101.101875 C458.915924,101.273907 458.748431,101.508771 458.661303,101.779945 L453.44722,101.779945 C453.420076,101.779945 453.393644,101.783238 453.367479,101.787955 C453.359469,101.789379 453.351815,101.791248 453.343983,101.793117 C453.324938,101.797656 453.306426,101.803441 453.28836,101.810382 C453.281596,101.812963 453.274743,101.815099 453.268158,101.818036 C453.245018,101.828271 453.222769,101.840108 453.201766,101.85408 C453.197227,101.857106 453.193222,101.860666 453.188861,101.86387 C453.17213,101.875795 453.156377,101.888789 453.141426,101.903029 C453.13573,101.908368 453.13039,101.913886 453.124961,101.919493 C453.111344,101.933822 453.098885,101.949129 453.087226,101.965238 C453.083488,101.9704 453.079394,101.975205 453.075924,101.980456 C453.06293,102.000125 453.051182,102.020772 453.041304,102.042754 L453.037477,102.051298 C453.037388,102.051476 453.037299,102.051654 453.03721,102.051832 L450.079831,108.646085 C450.029814,108.718083 450,108.805212 450,108.899549 C450,110.800352 451.546417,112.346769 453.44722,112.346769 C455.348024,112.346769 456.89444,110.800352 456.89444,108.899549 C456.89444,108.805212 456.864715,108.718172 456.81461,108.646174 L454.134457,102.66974 L458.672072,102.66974 C458.761692,102.928277 458.924023,103.152461 459.135214,103.318174 L459.135214,114.476741 L455.189253,114.476741 C455.022739,114.476741 454.870108,114.569743 454.793749,114.717745 L453.56968,117.091035 C453.498572,117.228981 453.504445,117.394071 453.585166,117.526588 C453.665975,117.659105 453.809884,117.740003 453.965184,117.740003 L466.026005,117.740003 C466.026539,117.739914 466.027073,117.740003 466.027785,117.740003 C466.273506,117.740003 466.472771,117.540738 466.472771,117.295017 C466.472771,117.2078 466.447674,117.126456 466.404332,117.057839 L465.197262,114.717745 C465.120903,114.569743 464.968272,114.476741 464.801759,114.476741 L460.855887,114.476741 L460.855887,103.328765 C461.073841,103.162073 461.241601,102.933973 461.333179,102.66974 L465.856732,102.66974 L463.14454,108.71746 C463.143828,108.719062 463.143472,108.720664 463.142761,108.722266 C463.140714,108.727072 463.139201,108.732056 463.137243,108.736951 C463.129233,108.757331 463.122825,108.778157 463.11793,108.79916 C463.116684,108.804678 463.115082,108.810018 463.114014,108.815535 C463.10912,108.841078 463.106628,108.866798 463.106272,108.892607 C463.106272,108.89501 463.10556,108.897146 463.10556,108.899549 C463.10556,110.800352 464.651976,112.346769 466.55278,112.346769 C468.453583,112.346769 470,110.800352 470,108.899549 C470,108.794354 469.961909,108.698949 469.900857,108.622767 Z M455.753317,108.454562 L451.141123,108.454562 L453.44722,103.312211 L455.753317,108.454562 Z M460.521791,102.20998 C460.521791,102.496284 460.288885,102.729101 460.00267,102.729101 C459.716366,102.729101 459.48346,102.496195 459.48346,102.20998 C459.48346,101.923676 459.716366,101.690859 460.00267,101.690859 C460.288885,101.69077 460.521791,101.923676 460.521791,102.20998 Z M464.237783,108.454562 L466.543969,103.312211 L468.850066,108.454562 L464.237783,108.454562 Z" id="Shape" fill="#FFFFFF" fill-rule="nonzero" opacity="0.699999988"></path>
        <path d="M117.346054,162.833333 C117.161029,163.197917 116.895056,163.483507 116.548135,163.690104 C116.201214,163.896702 115.831165,164 115.437988,164 L101.561145,164 C101.237352,164 100.994507,163.854167 100.832611,163.5625 C100.670714,163.270833 100.670714,162.979167 100.832611,162.6875 L103.365134,158.166667 C103.550159,157.802083 103.816132,157.516493 104.163053,157.309896 C104.509974,157.103298 104.880023,157 105.2732,157 L119.150043,157 C119.473836,157 119.716681,157.145833 119.878577,157.4375 C120.040474,157.729167 120.040474,158.020833 119.878577,158.3125 L117.346054,162.833333 Z M105.2732,155.833333 C104.671871,155.833333 104.116797,155.991319 103.607979,156.307292 C103.099161,156.623264 102.694421,157.048611 102.393755,157.583333 L100,161.885417 L100,151.75 C100,151.263889 100.161897,150.850694 100.48569,150.510417 C100.809482,150.170139 101.20266,150 101.665221,150 L107.215958,150 L109.436253,152.333333 L114.98699,152.333333 C115.449552,152.333333 115.842729,152.503472 116.166522,152.84375 C116.490315,153.184028 116.652212,153.597222 116.652212,154.083333 L116.652212,155.833333 L105.2732,155.833333 Z" id="" fill="#000000" opacity="0.300000012"></path>
        <path d="M254.046865,7.87498122 L252.953118,7.87498122 C252.861972,7.87498122 252.784498,7.84308012 252.720697,7.77927833 C252.656895,7.71547654 252.624994,7.63800248 252.624994,7.54685701 L252.624994,6.45310961 C252.624994,6.36196414 252.656895,6.28449009 252.720697,6.22068829 C252.784498,6.1568865 252.861972,6.1249854 252.953118,6.1249854 L254.046865,6.1249854 C254.138011,6.1249854 254.215485,6.1568865 254.279287,6.22068829 C254.343088,6.28449009 254.37499,6.36196414 254.37499,6.45310961 L254.37499,7.54685701 C254.37499,7.63800248 254.343088,7.71547654 254.279287,7.77927833 C254.215485,7.84308012 254.138011,7.87498122 254.046865,7.87498122 Z M256.999983,6.45310961 L256.999983,7.54685701 C256.999983,7.63800248 256.968082,7.71547654 256.90428,7.77927833 C256.840479,7.84308012 256.763005,7.87498122 256.671859,7.87498122 L255.578112,7.87498122 C255.486966,7.87498122 255.409492,7.84308012 255.34569,7.77927833 C255.281889,7.71547654 255.249987,7.63800248 255.249987,7.54685701 L255.249987,6.45310961 C255.249987,6.36196414 255.281889,6.28449009 255.34569,6.22068829 C255.409492,6.1568865 255.486966,6.1249854 255.578112,6.1249854 L256.671859,6.1249854 C256.763005,6.1249854 256.840479,6.1568865 256.90428,6.22068829 C256.968082,6.28449009 256.999983,6.36196414 256.999983,6.45310961 Z M259.624977,6.45310961 L259.624977,7.54685701 C259.624977,7.63800248 259.593076,7.71547654 259.529274,7.77927833 C259.465472,7.84308012 259.387998,7.87498122 259.296853,7.87498122 L258.203105,7.87498122 C258.11196,7.87498122 258.034486,7.84308012 257.970684,7.77927833 C257.906882,7.71547654 257.874981,7.63800248 257.874981,7.54685701 L257.874981,6.45310961 C257.874981,6.36196414 257.906882,6.28449009 257.970684,6.22068829 C258.034486,6.1568865 258.11196,6.1249854 258.203105,6.1249854 L259.296853,6.1249854 C259.387998,6.1249854 259.465472,6.1568865 259.529274,6.22068829 C259.593076,6.28449009 259.624977,6.36196414 259.624977,6.45310961 Z M256.999983,9.07810336 L256.999983,10.1718507 C256.999983,10.2629962 256.968082,10.3404703 256.90428,10.4042721 C256.840479,10.4680739 256.763005,10.499975 256.671859,10.499975 L255.578112,10.499975 C255.486966,10.499975 255.409492,10.4680739 255.34569,10.4042721 C255.281889,10.3404703 255.249987,10.2629962 255.249987,10.1718507 L255.249987,9.07810336 C255.249987,8.98695788 255.281889,8.90948383 255.34569,8.84568204 C255.409492,8.78188024 255.486966,8.74997914 255.578112,8.74997914 L256.671859,8.74997914 C256.763005,8.74997914 256.840479,8.78188024 256.90428,8.84568204 C256.968082,8.90948383 256.999983,8.98695788 256.999983,9.07810336 Z M254.37499,9.07810336 L254.37499,10.1718507 C254.37499,10.2629962 254.343088,10.3404703 254.279287,10.4042721 C254.215485,10.4680739 254.138011,10.499975 254.046865,10.499975 L252.953118,10.499975 C252.861972,10.499975 252.784498,10.4680739 252.720697,10.4042721 C252.656895,10.3404703 252.624994,10.2629962 252.624994,10.1718507 L252.624994,9.07810336 C252.624994,8.98695788 252.656895,8.90948383 252.720697,8.84568204 C252.784498,8.78188024 252.861972,8.74997914 252.953118,8.74997914 L254.046865,8.74997914 C254.138011,8.74997914 254.215485,8.78188024 254.279287,8.84568204 C254.343088,8.90948383 254.37499,8.98695788 254.37499,9.07810336 Z M259.624977,9.07810336 L259.624977,10.1718507 C259.624977,10.2629962 259.593076,10.3404703 259.529274,10.4042721 C259.465472,10.4680739 259.387998,10.499975 259.296853,10.499975 L258.203105,10.499975 C258.11196,10.499975 258.034486,10.4680739 257.970684,10.4042721 C257.906882,10.3404703 257.874981,10.2629962 257.874981,10.1718507 L257.874981,9.07810336 C257.874981,8.98695788 257.906882,8.90948383 257.970684,8.84568204 C258.034486,8.78188024 258.11196,8.74997914 258.203105,8.74997914 L259.296853,8.74997914 C259.387998,8.74997914 259.465472,8.78188024 259.529274,8.84568204 C259.593076,8.90948383 259.624977,8.98695788 259.624977,9.07810336 Z M262.249971,3.0624927 L262.249971,12.6874698 C262.249971,13.0520521 262.122367,13.3619474 261.867159,13.617155 C261.611952,13.8723626 261.302056,13.9999666 260.937474,13.9999666 L251.312497,13.9999666 C250.947915,13.9999666 250.638019,13.8723626 250.382812,13.617155 C250.127604,13.3619474 250,13.0520521 250,12.6874698 L250,3.0624927 C250,2.69791037 250.127604,2.388015 250.382812,2.13280741 C250.638019,1.87759983 250.947915,1.74999583 251.312497,1.74999583 L252.624994,1.74999583 L252.624994,0.328124218 C252.624994,0.236978741 252.656895,0.159504689 252.720697,0.0957028968 C252.784498,0.0319011047 252.861972,0 252.953118,0 L254.046865,0 C254.138011,0 254.215485,0.0319011047 254.279287,0.0957028968 C254.343088,0.159504689 254.37499,0.236978741 254.37499,0.328124218 L254.37499,1.74999583 L257.874981,1.74999583 L257.874981,0.328124218 C257.874981,0.236978741 257.906882,0.159504689 257.970684,0.0957028968 C258.034486,0.0319011047 258.11196,0 258.203105,0 L259.296853,0 C259.387998,0 259.465472,0.0319011047 259.529274,0.0957028968 C259.593076,0.159504689 259.624977,0.236978741 259.624977,0.328124218 L259.624977,1.74999583 L260.937474,1.74999583 C261.302056,1.74999583 261.611952,1.87759983 261.867159,2.13280741 C262.122367,2.388015 262.249971,2.69791037 262.249971,3.0624927 Z M260.937474,12.5234076 L260.937474,4.37498957 L251.312497,4.37498957 L251.312497,12.5234076 C251.312497,12.5598657 251.330726,12.5963243 251.367184,12.6327824 C251.403642,12.6692405 251.440101,12.6874698 251.476559,12.6874698 L260.773412,12.6874698 C260.80987,12.6874698 260.846328,12.6692405 260.882787,12.6327824 C260.919245,12.5963243 260.937474,12.5598657 260.937474,12.5234076 Z" id="" fill="#555555"></path>
        <path d="M161.249969,167.156202 C161.249969,167.390577 161.167938,167.589795 161.003876,167.753857 C160.839813,167.917919 160.640596,167.99995 160.406221,167.99995 L150.843748,167.99995 C150.609373,167.99995 150.410155,167.917919 150.246093,167.753857 C150.082031,167.589795 150,167.390577 150,167.156202 L150,154.218738 C150,153.984364 150.082031,153.785146 150.246093,153.621084 C150.410155,153.457021 150.609373,153.374991 150.843748,153.374991 L153.374991,153.374991 L153.374991,163.781212 C153.374991,164.320272 153.568349,164.783162 153.955067,165.16988 C154.341785,165.556597 154.804674,165.749956 155.343735,165.749956 L161.249969,165.749956 L161.249969,167.156202 Z M161.249969,153.65624 C161.249969,153.890614 161.332,154.089832 161.496062,154.253894 C161.660124,154.417957 161.859342,154.499987 162.093716,154.499987 L165.749956,154.499987 L165.749956,163.781212 C165.749956,164.015586 165.667925,164.214804 165.503863,164.378866 C165.339801,164.542928 165.140583,164.624959 164.906209,164.624959 L155.343735,164.624959 C155.109361,164.624959 154.910143,164.542928 154.746081,164.378866 C154.582018,164.214804 154.499987,164.015586 154.499987,163.781212 L154.499987,150.843748 C154.499987,150.609373 154.582018,150.410155 154.746081,150.246093 C154.910143,150.082031 155.109361,150 155.343735,150 L161.249969,150 L161.249969,153.65624 Z M165.503863,152.566399 C165.667925,152.730461 165.749956,152.929679 165.749956,153.164054 L165.749956,153.374991 L162.374966,153.374991 L162.374966,150 L162.585902,150 C162.820277,150 163.019495,150.082031 163.183557,150.246093 L165.503863,152.566399 Z" id="" fill="#FFFFFF" opacity="0.699999988"></path>
        <path d="M216.431089,11.0640569 C216.517225,11.0213521 216.689493,11 216.9479,11 C217.206306,11 217.723111,11.1281126 218.498331,11.3843416 C219.27355,11.6405707 219.768822,11.8540917 219.98416,12.024911 C218.347586,13.8612191 216.581835,16.0604854 214.686855,18.6227758 C215.892751,18.9217097 216.904828,19.5409206 217.723115,20.480427 C218.541402,21.4199335 218.95054,22.5622709 218.95054,23.9074733 C218.95054,25.2526758 218.444501,26.4377173 217.432409,27.4626335 C216.420317,28.4875496 215.246739,29 213.911639,29 L213.717835,29 C212.081261,29 210.713881,28.5302538 209.615653,27.5907473 C208.517426,26.6512409 207.979087,25.2420023 208.000621,23.3629893 C208.022155,21.4839764 208.991165,19.3274143 210.907679,16.8932384 C212.824194,14.4590626 214.665312,12.5160215 216.431089,11.0640569 Z M228.576132,11.0640569 C228.662267,11.0213521 228.823769,11 229.060641,11 C229.297514,11 229.825086,11.1387886 230.643373,11.4163701 C231.46166,11.6939516 231.913865,11.8967965 232,12.024911 C229.846613,14.5017917 228.123929,16.701058 226.831897,18.6227758 C228.037794,18.9217097 229.039104,19.5302445 229.835857,20.4483986 C230.63261,21.3665526 231.030981,22.519566 231.030981,23.9074733 C231.030981,25.2953806 230.535709,26.4910982 229.545151,27.4946619 C228.554593,28.4982257 227.370248,29 225.99208,29 L225.798276,29 C224.20477,29 222.858923,28.5302538 221.760696,27.5907473 C220.662468,26.6512409 220.113363,25.402143 220.113363,23.8434164 C220.113363,22.2846897 220.716302,20.5444936 221.922199,18.6227758 C223.774112,15.7188467 225.992067,13.1992989 228.576132,11.0640569 Z" id="“" fill="#B52A1B"></path>
        <path d="M209,150 C210.620968,150 212.120968,150.405242 213.5,151.215726 C214.879032,152.026209 215.973791,153.120968 216.784274,154.5 C217.594758,155.879032 218,157.379032 218,159 C218,160.620968 217.594758,162.120968 216.784274,163.5 C215.973791,164.879032 214.879032,165.973791 213.5,166.784274 C212.120968,167.594758 210.620968,168 209,168 C207.379032,168 205.879032,167.594758 204.5,166.784274 C203.120968,165.973791 202.026209,164.879032 201.215726,163.5 C200.405242,162.120968 200,160.620968 200,159 C200,157.379032 200.405242,155.879032 201.215726,154.5 C202.026209,153.120968 203.120968,152.026209 204.5,151.215726 C205.879032,150.405242 207.379032,150 209,150 Z M209,166.258065 C210.306452,166.258065 211.516129,165.931452 212.629032,165.278226 C213.741936,164.625 214.625,163.741936 215.278226,162.629032 C215.931452,161.516129 216.258065,160.306452 216.258065,159 C216.258065,157.693548 215.931452,156.483871 215.278226,155.370968 C214.625,154.258064 213.741936,153.375 212.629032,152.721774 C211.516129,152.068548 210.306452,151.741935 209,151.741935 C207.693548,151.741935 206.483871,152.068548 205.370968,152.721774 C204.258064,153.375 203.375,154.258064 202.721774,155.370968 C202.068548,156.483871 201.741935,157.693548 201.741935,159 C201.741935,160.306452 202.068548,161.516129 202.721774,162.629032 C203.375,163.741936 204.258064,164.625 205.370968,165.278226 C206.483871,165.931452 207.693548,166.258065 209,166.258065 Z M211.104839,159.943548 C211.056452,160.112903 210.971774,160.245968 210.850806,160.342742 L207.149194,163.899194 C206.931452,164.092742 206.695565,164.171371 206.441532,164.135081 C206.1875,164.09879 205.981855,163.977823 205.824597,163.772177 C205.667339,163.566532 205.625,163.330645 205.697581,163.064516 L206.895161,158.056452 C206.943548,157.887097 207.028226,157.754032 207.149194,157.657258 L210.850806,154.100806 C211.068548,153.907258 211.304435,153.828629 211.558468,153.864919 C211.8125,153.90121 212.018145,154.022177 212.175403,154.227823 C212.332661,154.433468 212.375,154.669355 212.302419,154.935484 L211.104839,159.943548 Z M209,157.83871 C208.685484,157.83871 208.413306,157.953629 208.183468,158.183468 C207.953629,158.413306 207.83871,158.685484 207.83871,159 C207.83871,159.314516 207.953629,159.586694 208.183468,159.816532 C208.413306,160.046371 208.685484,160.16129 209,160.16129 C209.314516,160.16129 209.586694,160.046371 209.816532,159.816532 C210.046371,159.586694 210.16129,159.314516 210.16129,159 C210.16129,158.685484 210.046371,158.413306 209.816532,158.183468 C209.586694,157.953629 209.314516,157.83871 209,157.83871 Z" id="" fill="#FFFFFF" opacity="0.699999988"></path>
        <path d="M313.808561,12.1132524 C313.936165,12.2408564 313.999967,12.3958036 313.999967,12.578095 C313.999967,12.7603864 313.936165,12.9153337 313.808561,13.0429377 L313.042938,13.8085608 C312.915334,13.9361648 312.760386,13.9999666 312.578095,13.9999666 C312.395804,13.9999666 312.240856,13.9361648 312.113252,13.8085608 L309.378884,11.0741923 C309.25128,10.9465883 309.187478,10.7916411 309.187478,10.6093497 L309.187478,10.1718507 C308.166647,10.973932 306.999983,11.3749729 305.687486,11.3749729 C304.648426,11.3749729 303.695955,11.1197653 302.830071,10.6093497 C301.964188,10.0989341 301.276039,9.41078499 300.765623,8.5449015 C300.255208,7.67901801 300,6.72654646 300,5.68748644 C300,4.64842642 300.255208,3.69595487 300.765623,2.83007138 C301.276039,1.96418789 301.964188,1.27603876 302.830071,0.765623175 C303.695955,0.255207586 304.648426,0 305.687486,0 C306.726546,0 307.679018,0.255207586 308.544902,0.765623175 C309.410785,1.27603876 310.098934,1.96418789 310.60935,2.83007138 C311.119765,3.69595487 311.374973,4.64842642 311.374973,5.68748644 C311.374973,6.99998331 310.973932,8.16664733 310.171851,9.1874781 L310.60935,9.1874781 C310.791641,9.1874781 310.946588,9.25127989 311.074192,9.37888389 L313.808561,12.1132524 Z M305.687486,9.1874781 C306.325506,9.1874781 306.913395,9.03253041 307.451154,8.72263545 C307.988913,8.4127405 308.41274,7.98891338 308.722635,7.45115411 C309.03253,6.91339484 309.187478,6.32550561 309.187478,5.68748644 C309.187478,5.04946727 309.03253,4.46157804 308.722635,3.92381877 C308.41274,3.3860595 307.988913,2.96223238 307.451154,2.65233743 C306.913395,2.34244247 306.325506,2.18749478 305.687486,2.18749478 C305.049467,2.18749478 304.461578,2.34244247 303.923819,2.65233743 C303.386059,2.96223238 302.962232,3.3860595 302.652337,3.92381877 C302.342442,4.46157804 302.187495,5.04946727 302.187495,5.68748644 C302.187495,6.32550561 302.342442,6.91339484 302.652337,7.45115411 C302.962232,7.98891338 303.386059,8.4127405 303.923819,8.72263545 C304.461578,9.03253041 305.049467,9.1874781 305.687486,9.1874781 Z" id="" fill="#555555"></path>
        <path d="M367.141142,14.9062145 C367.141142,15.1405891 367.059111,15.339807 366.895049,15.5038693 C366.730987,15.6679316 366.531769,15.7499624 366.297394,15.7499624 L362.219279,15.7499624 C362.102092,15.7499624 362.002482,15.7089467 361.920451,15.6269159 C361.838421,15.544885 361.797405,15.4452755 361.797405,15.3280885 L361.797405,11.3905978 C361.797405,11.2734108 361.756389,11.1738013 361.674358,11.0917704 C361.592327,11.0097396 361.492718,10.9687238 361.375531,10.9687238 L358.844287,10.9687238 C358.7271,10.9687238 358.62749,11.0097396 358.545459,11.0917704 C358.463429,11.1738013 358.422413,11.2734108 358.422413,11.3905978 L358.422413,15.3280885 C358.422413,15.4452755 358.381397,15.544885 358.299366,15.6269159 C358.217335,15.7089467 358.117726,15.7499624 358.000539,15.7499624 L353.922424,15.7499624 C353.688049,15.7499624 353.488831,15.6679316 353.324769,15.5038693 C353.160707,15.339807 353.078676,15.1405891 353.078676,14.9062145 L353.078676,9.8788827 C353.078676,9.73825803 353.12555,9.62107099 353.2193,9.52732104 L359.82866,4.11327144 C359.92241,4.04295911 360.016159,4.00780294 360.109909,4.00780294 C360.203659,4.00780294 360.297408,4.04295911 360.391158,4.11327144 L367.000517,9.52732104 C367.094267,9.62107099 367.141142,9.73825803 367.141142,9.8788827 L367.141142,14.9062145 Z M370.09426,7.73435656 C370.164572,7.80466889 370.205588,7.89841885 370.217307,8.01560589 C370.229025,8.13279293 370.199729,8.23826143 370.129416,8.33201138 L369.250512,9.42185254 C369.1802,9.51560249 369.08645,9.5624772 368.969263,9.5624772 C368.852076,9.5624772 368.746607,9.52732104 368.652857,9.4570087 L360.391158,2.67186863 C360.297408,2.6015563 360.203659,2.56640013 360.109909,2.56640013 C360.016159,2.56640013 359.92241,2.6015563 359.82866,2.67186863 L351.56696,9.4570087 C351.473211,9.52732104 351.367742,9.5624772 351.250555,9.5624772 C351.133368,9.5624772 351.039618,9.51560249 350.969306,9.42185254 L350.090402,8.33201138 C350.020089,8.23826143 349.990793,8.13279293 350.002511,8.01560589 C350.01423,7.89841885 350.055245,7.80466889 350.125558,7.73435656 L359.055224,0.386717828 C359.359911,0.128906121 359.711473,0 360.109909,0 C360.508345,0 360.871626,0.128906121 361.19975,0.386717828 L364.328649,2.98827413 L364.328649,0.421873994 C364.328649,0.304686952 364.369665,0.205077457 364.451695,0.123046582 C364.533726,0.041015706 364.633336,0 364.750523,0 L366.719268,0 C366.836455,0 366.936065,0.041015706 367.018096,0.123046582 C367.100126,0.205077457 367.141142,0.304686952 367.141142,0.421873994 L367.141142,5.30858109 L370.09426,7.73435656 Z" id="" fill="#FFFFFF"></path>
        <path d="M209,50 C210.620968,50 212.120968,50.4052421 213.5,51.2157258 C214.879032,52.0262095 215.973791,53.1209677 216.784274,54.5 C217.594758,55.8790323 218,57.3790321 218,59 C218,60.6209679 217.594758,62.1209677 216.784274,63.5 C215.973791,64.8790323 214.879032,65.9737905 213.5,66.7842742 C212.120968,67.5947579 210.620968,68 209,68 C207.379032,68 205.879032,67.5947579 204.5,66.7842742 C203.120968,65.9737905 202.026209,64.8790323 201.215726,63.5 C200.405242,62.1209677 200,60.6209679 200,59 C200,57.3790321 200.405242,55.8790323 201.215726,54.5 C202.026209,53.1209677 203.120968,52.0262095 204.5,51.2157258 C205.879032,50.4052421 207.379032,50 209,50 Z M209,66.2580645 C210.306452,66.2580645 211.516129,65.9314516 212.629032,65.2782258 C213.741936,64.625 214.625,63.7419357 215.278226,62.6290323 C215.931452,61.5161288 216.258065,60.3064516 216.258065,59 C216.258065,57.6935484 215.931452,56.4838712 215.278226,55.3709677 C214.625,54.2580643 213.741936,53.375 212.629032,52.7217742 C211.516129,52.0685484 210.306452,51.7419355 209,51.7419355 C207.693548,51.7419355 206.483871,52.0685484 205.370968,52.7217742 C204.258064,53.375 203.375,54.2580643 202.721774,55.3709677 C202.068548,56.4838712 201.741935,57.6935484 201.741935,59 C201.741935,60.3064516 202.068548,61.5161288 202.721774,62.6290323 C203.375,63.7419357 204.258064,64.625 205.370968,65.2782258 C206.483871,65.9314516 207.693548,66.2580645 209,66.2580645 Z M210.451613,59 L212.701613,61.25 C212.774194,61.3467744 212.810484,61.4556453 212.810484,61.5766129 C212.810484,61.6975805 212.774194,61.7943548 212.701613,61.8669355 L211.866935,62.7016129 C211.794355,62.7741935 211.69758,62.8104839 211.576613,62.8104839 C211.455645,62.8104839 211.346774,62.7741935 211.25,62.7016129 L209,60.4516129 L206.75,62.7016129 C206.653226,62.7741935 206.544355,62.8104839 206.423387,62.8104839 C206.30242,62.8104839 206.205645,62.7741935 206.133065,62.7016129 L205.298387,61.8669355 C205.225806,61.7943548 205.189516,61.6975805 205.189516,61.5766129 C205.189516,61.4556453 205.225806,61.3467744 205.298387,61.25 L207.548387,59 L205.298387,56.75 C205.225806,56.6532256 205.189516,56.5443547 205.189516,56.4233871 C205.189516,56.3024195 205.225806,56.2056452 205.298387,56.1330645 L206.133065,55.2983871 C206.205645,55.2258065 206.30242,55.1895161 206.423387,55.1895161 C206.544355,55.1895161 206.653226,55.2258065 206.75,55.2983871 L209,57.5483871 L211.25,55.2983871 C211.346774,55.2258065 211.455645,55.1895161 211.576613,55.1895161 C211.69758,55.1895161 211.794355,55.2258065 211.866935,55.2983871 L212.701613,56.1330645 C212.774194,56.2056452 212.810484,56.3024195 212.810484,56.4233871 C212.810484,56.5443547 212.774194,56.6532256 212.701613,56.75 L210.451613,59 Z" id="" fill="#B01B0B" opacity="0.800000012"></path>
        <path d="M259,50 C260.620968,50 262.120968,50.4052421 263.5,51.2157258 C264.879032,52.0262095 265.973791,53.1209677 266.784274,54.5 C267.594758,55.8790323 268,57.3790321 268,59 C268,60.6209679 267.594758,62.1209677 266.784274,63.5 C265.973791,64.8790323 264.879032,65.9737905 263.5,66.7842742 C262.120968,67.5947579 260.620968,68 259,68 C257.379032,68 255.879032,67.5947579 254.5,66.7842742 C253.120968,65.9737905 252.026209,64.8790323 251.215726,63.5 C250.405242,62.1209677 250,60.6209679 250,59 C250,57.3790321 250.405242,55.8790323 251.215726,54.5 C252.026209,53.1209677 253.120968,52.0262095 254.5,51.2157258 C255.879032,50.4052421 257.379032,50 259,50 Z M259,51.7419355 C257.693548,51.7419355 256.483871,52.0685484 255.370968,52.7217742 C254.258064,53.375 253.375,54.2580643 252.721774,55.3709677 C252.068548,56.4838712 251.741935,57.6935484 251.741935,59 C251.741935,60.3064516 252.068548,61.5161288 252.721774,62.6290323 C253.375,63.7419357 254.258064,64.625 255.370968,65.2782258 C256.483871,65.9314516 257.693548,66.2580645 259,66.2580645 C260.306452,66.2580645 261.516129,65.9314516 262.629032,65.2782258 C263.741936,64.625 264.625,63.7419357 265.278226,62.6290323 C265.931452,61.5161288 266.258065,60.3064516 266.258065,59 C266.258065,57.6935484 265.931452,56.4838712 265.278226,55.3709677 C264.625,54.2580643 263.741936,53.375 262.629032,52.7217742 C261.516129,52.0685484 260.306452,51.7419355 259,51.7419355 Z M264.080645,56.4596774 C264.17742,56.5564518 264.225806,56.6653228 264.225806,56.7862903 C264.225806,56.9072579 264.17742,57.0040323 264.080645,57.0766129 L257.83871,63.2822581 C257.741935,63.3790324 257.633064,63.4274194 257.512097,63.4274194 C257.391129,63.4274194 257.294355,63.3790324 257.221774,63.2822581 L253.919355,59.9798387 C253.82258,59.8830643 253.774194,59.7741934 253.774194,59.6532258 C253.774194,59.5322582 253.82258,59.4354839 253.919355,59.3629032 L254.754032,58.5282258 C254.826613,58.4556452 254.923387,58.4193548 255.044355,58.4193548 C255.165322,58.4193548 255.274193,58.4556452 255.370968,58.5282258 L257.512097,60.7419355 L262.665323,55.625 C262.737903,55.5524194 262.834678,55.516129 262.955645,55.516129 C263.076613,55.516129 263.185484,55.5645159 263.282258,55.6612903 L264.080645,56.4596774 Z" id="" fill="#58AD76" opacity="0.800000012"></path>
        <g id="Rectangle-16" opacity="0.100000001">
            <use fill-opacity="0" fill="#FFFFFF" fill-rule="evenodd" xlink:href="#path-1"></use>
            <rect stroke="#000000" stroke-width="1" x="300.5" y="50.5" width="15" height="15" rx="7.5"></rect>
        </g>
        <path d="M412.375,9 L417.740385,14.2788462 C417.913462,14.5096158 418,14.7692312 418,15.0576923 C418,15.3461534 417.884616,15.5769231 417.653846,15.75 L415.75,17.6538462 C415.576923,17.8846158 415.346153,18 415.057692,18 C414.769231,18 414.509616,17.9134615 414.278846,17.7403846 L409,12.375 L403.721154,17.6538462 C403.490384,17.8846158 403.230769,18 402.942308,18 C402.653847,18 402.423077,17.9134615 402.25,17.7403846 L400.346154,15.75 C400.115384,15.5769231 400,15.3461534 400,15.0576923 C400,14.7692312 400.086538,14.5096158 400.259615,14.2788462 L405.625,9 L400.346154,3.72115385 C400.115384,3.49038418 400,3.23076879 400,2.94230769 C400,2.65384659 400.086538,2.42307692 400.259615,2.25 L402.25,0.259615385 C402.423077,0.0865384615 402.653847,0 402.942308,0 C403.230769,0 403.490384,0.0865384615 403.721154,0.259615385 L409,5.625 L414.278846,0.259615385 C414.509616,0.0865384615 414.769231,0 415.057692,0 C415.346153,0 415.576923,0.0865384615 415.75,0.259615385 L417.740385,2.25 C417.913462,2.42307692 418,2.65384659 418,2.94230769 C418,3.23076879 417.913462,3.49038418 417.740385,3.72115385 L412.375,9 Z" id="" fill="#333333" opacity="0.900000036"></path>
    </g>
</svg>